<?xml version="1.0" encoding="UTF-8"?>
<!DOCTYPE svg PUBLIC "-//W3C//DTD SVG 1.1//EN" "http://www.w3.org/Graphics/SVG/1.1/DTD/svg11.dtd">
<!-- Creator: CorelDRAW 2021.5 -->
<svg xmlns="http://www.w3.org/2000/svg" xml:space="preserve" width="10.5452in" height="8.39805in" version="1.1" style="shape-rendering:geometricPrecision; text-rendering:geometricPrecision; image-rendering:optimizeQuality; fill-rule:evenodd; clip-rule:evenodd"
viewBox="0 0 10542.93 8396.21"
 xmlns:xlink="http://www.w3.org/1999/xlink"
 xmlns:xodm="http://www.corel.com/coreldraw/odm/2003">
 <defs>
  <style type="text/css">
   <![CDATA[
    .fil0 {fill: #ffffff;fill-rule:nonzero}
   ]]>
  </style>
 </defs>
 <g id="Layer_x0020_1">
  <metadata id="CorelCorpID_0Corel-Layer"/>
  <g id="_2582750476480">
   <path class="fil0" d="M9642.84 778.01c-574.17,-518.76 -1272.78,-778.01 -2095.6,-778.01 -1088.65,0 -1847.27,459.18 -2275.71,1377.56 -428.52,-918.36 -1187.13,-1377.56 -2275.78,-1377.56 -822.83,0 -1521.44,259.25 -2095.61,778.01 -600,544.27 -900.14,1215.95 -900.14,2015.31 0,850.32 351.47,1730.56 1054.35,2640.2 394.33,518.75 1075.76,1220.22 2044.39,2104.59 351.52,323.61 662.31,602.82 932.46,837.56 72.33,-164.67 147.83,-302.36 147.83,-302.36 -31.58,-50.58 -126.22,-227.23 -56.76,-492.42 69.39,-265.19 -31.69,-719.52 -164.15,-915.25 -132.52,-195.73 -688.02,-934.18 -820.54,-1502.25 0,0 -637.51,94.58 -1066.77,-239.93 -429.28,-334.63 -1035.21,-650.06 -1148.8,-675.45 -113.64,-25.25 -6.38,-246.1 31.58,-347.12 37.88,-100.96 -145.15,-492.42 366.13,-927.93 329.53,-280.74 569.77,-577.04 699.11,-752.37l298.22 -475.31c385.03,-179.91 796.05,-47.32 796.05,-47.32l43.49 381.95c0,0 -302.99,122.95 -322,122.95 -18.88,0 -379.52,211.49 -379.86,211.6 -67.48,107.84 -244.71,410.73 -295.53,684.83 -63.14,340.87 -56.83,561.74 -56.83,561.74l208.3 -6.32c0,0 214.6,-176.72 536.55,-31.58 321.94,145.22 321.94,145.22 321.94,145.22 0,0 183.1,-202.03 549.12,-132.59 366.13,69.46 542.85,347.2 725.96,372.45 183.04,25.25 372.39,0 372.39,-258.81 0,-258.86 -82.01,-422.96 -82.01,-422.96 0,0 -179.97,-14.15 -227.23,-160.96 -47.39,-146.75 -52.11,-426.02 -9.49,-440.31 42.73,-14.16 104.15,-18.88 104.15,-18.88 0,0 -56.76,-454.46 -33.22,-553.89 21.17,-88.65 196.62,-327.35 619.58,-391.83l0 -15.37c28.63,0.95 56.25,2.87 83.22,5.3 26.86,-2.42 54.46,-4.35 83.17,-5.3l0 15.37c423.02,64.48 598.34,303.2 619.51,391.83 23.67,99.36 -33.22,553.89 -33.22,553.89 0,0 61.6,4.66 104.21,18.88 42.67,14.28 37.96,293.55 -9.49,440.31 -47.32,146.81 -227.23,160.96 -227.23,160.96 0,0 -82.01,164.1 -82.01,422.96 0,258.81 189.35,284.06 372.32,258.81 183.16,-25.25 359.88,-302.99 725.96,-372.45 366.07,-69.46 549.18,132.59 549.18,132.59 0,0 0,0 321.81,-145.22 322,-145.22 536.6,31.58 536.6,31.58l208.3 6.32c0,0 6.38,-220.85 -56.89,-561.74 -50.7,-274.1 -228.07,-576.85 -295.53,-684.83 0,0 -360.96,-211.6 -379.86,-211.6 -18.95,0 -321.94,-122.95 -321.94,-122.95l43.49 -381.95c0,0 410.97,-132.59 795.99,47.32l298.27 475.31c129.22,175.33 369.58,471.63 699.11,752.37 511.29,435.53 328.25,826.91 366.07,927.93 37.88,101.02 145.22,321.87 31.63,347.12 -113.59,25.31 -719.57,340.76 -1148.91,675.45 -429.21,334.5 -1066.72,239.93 -1066.72,239.93 -132.52,568.05 -688.01,1306.58 -820.67,1502.25 -132.4,195.73 -233.42,650.06 -164.09,915.25 69.46,265.19 -25.25,441.83 -56.63,492.42 0,0 81.82,149.31 156.69,322.89 259.31,-223.22 571.63,-504.97 936.49,-845.28 1302.81,-1198.99 2142.87,-2134.33 2519.97,-2806.19 377.11,-671.68 565.7,-1322.21
    565.7,-1951.42 0,-799.36 -300.01,-1470.99 -900.01,-2015.31l-0.07 0z"/>
  </g>
 </g>
</svg>
